<?xml version="1.0" encoding="utf-8"?>
<!-- Generator: Adobe Illustrator 23.0.3, SVG Export Plug-In . SVG Version: 6.00 Build 0)  -->
<svg version="1.2" baseProfile="tiny" id="Layer_1" xmlns="http://www.w3.org/2000/svg" xmlns:xlink="http://www.w3.org/1999/xlink"
	 x="0px" y="0px" viewBox="0 0 134.1 126.4" xml:space="preserve">
<path d="M53,25.5v24.7c0,7.8,6.3,14.1,14.1,14.1c7.6,0,13.9-6.3,14.1-14.1V25.5c0-7.8-6.3-14.3-14.1-14.3C59.3,11.3,53,17.7,53,25.5
	z"/>
<path d="M112.4,0.2L112.4,0.2c-8.7,0-14.7,6.1-22.3,10c-0.4,0.2-1.1,0.4-1.7,0.6v39.4c-0.2,11.7-9.7,21.2-21.2,21.2
	c-11.7,0-21.2-9.7-21.2-21.6V10.6L44.2,10C36.6,6.3,30.8,0,21.9,0C6.9,0-3.9,15.6,1.3,29.9c2.2,6.3,6.7,9.7,11.9,13.2
	c6.3,4.1,12.1,9.3,16.9,15.2C37,67.1,41.8,77.7,44,88.7c1.1,5.2,1.7,12.3,2.2,17.1c1.1,11.3,8.7,20.6,21,20.6s19.9-9.3,21-20.6
	c0.4-5,1.1-11.9,2.2-17.1c2.2-11,6.9-21.6,13.9-30.5c4.8-6.1,10.4-11,16.9-15.2c5.2-3.5,9.7-6.9,11.9-13.2
	C137.9,15.8,127.1,0.2,112.4,0.2z"/>
</svg>
